Coordinates
version=1
nRows=9
nColumns=36
inDegrees=yes

Units are S.I. units (second, meters, Newtons, ...)
If the header above contains a line with 'inDegrees', this indicates whether rotational values are in degrees (yes) or radians (no).

endheader
time	pelvis_tilt	pelvis_list	pelvis_rotation	pelvis_tx	pelvis_ty	pelvis_tz	hip_flexion_r	hip_adduction_r	hip_rotation_r	knee_angle_r	knee_angle_r_beta	ankle_angle_r	subtalar_angle_r	mtp_angle_r	hip_flexion_l	hip_adduction_l	hip_rotation_l	knee_angle_l	knee_angle_l_beta	ankle_angle_l	subtalar_angle_l	mtp_angle_l	lumbar_extension	lumbar_bending	lumbar_rotation	arm_flex_r	arm_add_r	arm_rot_r	elbow_flex_r	pro_sup_r	arm_flex_l	arm_add_l	arm_rot_l	elbow_flex_l	pro_sup_l
      0.00000000	     -1.66892236	      0.06656593	     -1.14449871	     -0.16341256	      1.03996796	     -0.67482149	      2.35400395	     -6.77332905	     -5.96633578	      6.54068576	      0.11415650	      6.89463960	     -5.81804101	     -6.01401354	      1.47852036	     -5.45986076	    -10.15259320	      3.84567932	      0.06711977	      3.99308918	      6.44429152	     -6.01401354	     -7.31859710	     -0.01536996	     -0.63539664	     -2.01097999	     -9.09487992	     10.63262990	    113.50398887	     89.37835614	      0.79633297	    -11.67835939	     22.28448358	    115.13628204	     90.43121809
      0.01000000	     -1.95148564	      0.05098460	     -1.21222148	     -0.16411003	      1.03959321	     -0.67479007	      2.82362623	     -6.71059412	     -5.34481077	      6.81126340	      0.11887897	      7.55062393	     -5.64354828	     -6.23395142	      1.70448769	     -5.43584391	     -9.85887033	      3.63597120	      0.06345967	      3.78950521	      5.93897305	     -6.23395142	     -7.12885391	      0.01787315	     -0.66660975	     -1.78828180	     -9.08112425	     10.73430206	    113.82058118	     86.98782406	      0.85530806	    -11.89421588	     22.45356981	    115.74983348	     88.26071357
      0.02000000	     -1.84270087	      0.00529026	     -1.30286800	     -0.16451063	      1.03989609	     -0.67475243	      2.74939255	     -6.62622609	     -5.02493412	      6.82724512	      0.11915791	      7.81471432	     -5.24606306	     -6.67595293	      1.50700748	     -5.47716562	    -10.24851464	      3.46086706	      0.06040353	      3.73618482	      6.28968813	     -6.67595293	     -7.35014508	      0.07566427	     -0.55353924	     -1.57747286	     -8.99943984	     10.38255654	    113.31597493	     92.42162050	      1.15180114	    -11.86927989	     22.25163447	    114.90429407	     94.52442865
      0.03000000	     -2.01748247	     -0.02138096	     -1.37231847	     -0.16507074	      1.03972584	     -0.67457538	      3.03052625	     -6.55262074	     -4.61396536	      6.93723623	      0.12107761	      8.12797192	     -5.03057254	     -6.71066519	      1.61805907	     -5.49536842	    -10.19983985	      3.26862894	      0.05704834	      3.61853045	      6.23628166	     -6.71066519	     -7.27463522	      0.11547333	     -0.54991622	     -1.36538563	     -8.93054750	     10.35119798	    113.40955585	     91.84551110	      1.27471043	    -11.91179709	     22.29306150	    115.11391346	     93.99306002
      0.04000000	     -2.06182957	     -0.02727099	     -1.49671924	     -0.16552912	      1.03976568	     -0.67417777	      3.15807346	     -6.49835520	     -4.27621004	      7.00277209	      0.12222143	      8.38532652	     -4.73401829	     -6.74409952	      1.53864654	     -5.48982919	    -10.25077441	      3.01130072	      0.05255711	      3.43202382	      6.10589187	     -6.74409952	     -7.32334651	      0.11703136	     -0.48549186	     -1.13235103	     -8.84661703	     10.32041302	    113.41466573	     91.35619507	      1.46674185	    -11.96753254	     22.30495262	    115.20778481	     93.57999026
      0.05000000	     -2.24445521	     -0.03768943	     -1.59088375	     -0.16608054	      1.03957671	     -0.67368813	      3.45232560	     -6.43503922	     -4.02264557	      7.08159920	      0.12359722	      8.47637584	     -4.49608636	     -6.76962100	      1.66107643	     -5.50048498	    -10.24443371	      2.83297200	      0.04944469	      3.29321393	      5.95857313	     -6.76962100	     -7.21181852	      0.11974244	     -0.45383800	     -0.93436600	     -8.75169119	     10.29083238	    113.46567318	     90.93332705	      1.64136929	    -12.06694197	     22.32291391	    115.37469631	     93.21274352
      0.06000000	     -2.12005666	     -0.04571551	     -1.61539624	     -0.16656290	      1.03982631	     -0.67357401	      3.38017277	     -6.43959160	     -4.01119696	      7.16350914	      0.12502682	      8.71332094	     -4.02113382	     -6.85402726	      1.42848104	     -5.46852551	    -10.18629127	      2.58610359	      0.04513602	      3.11139420	      5.84511927	     -6.85402726	     -7.47998209	      0.14169302	     -0.44355295	     -0.69821566	     -8.71813894	     10.26950839	    113.61457643	     89.28782168	      1.86735811	    -12.12823080	     22.42179253	    115.61269706	     91.63767599
      0.07000000	     -2.12010783	     -0.00096681	     -1.43816312	     -0.16713851	      1.03989265	     -0.67414002	      3.45581716	     -6.58697465	     -4.64215828	      7.28600976	      0.12716486	      8.89392163	     -2.95692797	     -7.08870024	      1.36890951	     -5.30903156	     -9.36049227	      2.33065322	      0.04067757	      2.64701161	      4.74694346	     -7.08870024	     -7.61203006	      0.16107229	     -0.63762526	     -0.48979789	     -8.73815356	     10.07748443	    113.46082763	     92.11261465	      2.11680070	    -12.10571449	     22.33235210	    115.26644240	     94.77032822
      0.08000000	     -2.13111212	      0.03610098	     -1.39475588	     -0.16750887	      1.03988725	     -0.67416617	      3.53819637	     -6.68450702	     -4.99924705	      7.33375019	      0.12799809	      8.60217012	     -2.48801794	     -7.12956512	      1.39842757	     -5.25725792	     -9.43014564	      2.29466037	      0.04004938	      2.69897820	      4.90392916	     -7.12956512	     -7.70750627	      0.15628457	     -0.75798209	     -0.28091679	     -8.72669612	     10.15198912	    113.68090323	     90.19016981	      2.25394234	    -12.14757777	     22.41920339	    115.57842207	     92.76286675
